<svg xmlns="http://www.w3.org/2000/svg" viewBox="0 0 48 32" aria-hidden="true"><rect width="48" height="32" fill="#cf202f" rx="4"/><path fill="#fff" d="M36 26.34H12V5.66h24zm-23.15-.85h22.3v-19h-22.3zm4.87-7.82v1c0 .48-.29.45-.29.45h-1.06v-1.76h1a.28.28 0 0 1 .31.24m-1.35-4.4h1.06a.26.26 0 0 1 .29.22v1.17a.29.29 0 0 1-.26.31h-1.05v-1.64zm1.2-2.44h-3.08v10.38h3.72a1.82 1.82 0 0 0 1.6-1.85v-1.91A1.38 1.38 0 0 0 18.4 16c1.33-.21 1.42-.9 1.42-1.49v-1.77a1.82 1.82 0 0 0-1.68-1.93h-.54zm10.22 2.27h1.95v8.13h2V13h1.88v-2.13h-5.8v2.21zm-1.34 1.39v-1.68a1.8 1.8 0 0 0-1.67-1.93h-3.63v10.33H23v-3.78h1a.26.26 0 0 1 .3.24v3.49h2.05v-3.71A1.46 1.46 0 0 0 25 16c1.32-.21 1.49-.9 1.49-1.49zm-2.05.17a.29.29 0 0 1-.26.31H23v-1.64h1.1a.24.24 0 0 1 .28.22v1.17z"/></svg>