<svg xmlns="http://www.w3.org/2000/svg" viewBox="0 0 48.61 32" aria-hidden="true"><path fill="#fff" d="M0 28a4 4 0 0 0 4 4h40a4 4 0 0 0 4-4v-6H0z"/><path fill="#fc0" d="M44 0H4a4 4 0 0 0-4 4v18h48V4a4 4 0 0 0-4-4zM47.5 26.57h.5V27H33h.05H30h.05H0v-.38h47.5zm-12.82-1.74H0v.37h48v-.37zm7.18-1.75H0v.38h48v-.38z"/><path fill="#d40511" d="M12.94 26.45h1.68l-.1.12-.26.36H12l.27-.36 1-1.37.28-.37 1-1.37.28-.38h2.27l-.27.38-.08.1h-1.67l-.84 1.12h1.53l-.11.15-.25.34h-1.53zm10-1.62a3.14 3.14 0 0 1-1.66.56h-.57l-.87 1.18-.27.36H19l.27-.36 1-1.37.28-.37 1-1.37.28-.38h1.36c.35 0 .6.15.65.38a1 1 0 0 1-.29.76 3 3 0 0 1-.55.61zm0-.61c.36-.49 0-.67-.39-.67h-.49l-.94 1.28-.06.07h.57a1.55 1.55 0 0 0 .43-.07 1.7 1.7 0 0 0 .94-.61zm4.68 1h1.53l.25-.34.11-.15h-1.44l.83-1.12h1.68l.07-.1.28-.38h-2.25l-.28.38-1 1.37-.28.37-1 1.37-.27.36h2.26l.26-.36.09-.12h-1.69zm4.48 0a.55.55 0 0 0-.18-.37c-.29-.27-.76-.4-.44-.83a1.34 1.34 0 0 1 1.08-.51 1.15 1.15 0 0 1 .64.16l.17-.19.28-.32a1.06 1.06 0 0 0-.19-.06A2.1 2.1 0 0 0 33 23a2.47 2.47 0 0 0-.6.08 2.71 2.71 0 0 0-.81.38 2.48 2.48 0 0 0-.66.59c-.28.38-.27.61-.16.78a1.47 1.47 0 0 0 .41.37c.22.16.39.33.13.68a1.72 1.72 0 0 1-1.26.63 1.46 1.46 0 0 1-.69-.19l-.22.25-.22.27.31.11a1.6 1.6 0 0 0 .39.05 2.94 2.94 0 0 0 1.5-.43 2.65 2.65 0 0 0 .82-.72 1 1 0 0 0 .22-.65zM35.84 23a2.46 2.46 0 0 0-.59.08 2.65 2.65 0 0 0-.82.38 2.48 2.48 0 0 0-.66.59c-.28.38-.27.61-.16.78a1.47 1.47 0 0 0 .41.37c.23.16.39.33.13.68a1.7 1.7 0 0 1-1.25.63 1.47 1.47 0 0 1-.7-.19l-.21.25-.23.27a2.39 2.39 0 0 0 .32.11 1.48 1.48 0 0 0 .39.05 2.94 2.94 0 0 0 1.53-.43 2.8 2.8 0 0 0 .83-.72 1 1 0 0 0 .17-.65.55.55 0 0 0-.18-.37c-.29-.27-.76-.4-.44-.83a1.34 1.34 0 0 1 1.08-.51 1.15 1.15 0 0 1 .64.16l.17-.19.29-.32a1.17 1.17 0 0 0-.2-.06 2.1 2.1 0 0 0-.52-.08zm-14.62.08h-.65l-.55.38-1.59 1.09v-1.47h-.69v1.84l-.42.28-2 1.37-.53.36h.69l.52-.36 1.84-1.28V26.93h.72v-2l.12-.08 2-1.37zm4.4 2.12a.65.65 0 0 1 0 .19l-.29 1.18-.09.36h-.65l.1-.36.27-1c.1-.37-.09-.37-.4-.37h-.34l-1 1.35-.27.36h-.58l.27-.36 1-1.37.28-.37 1-1.37.28-.38h1.35c.38 0 .67.13.7.38a1 1 0 0 1-.27.65 2.31 2.31 0 0 1-.94.72 1.85 1.85 0 0 1-.54.16.2.2 0 0 1 .12.23zm.75-1.08c.26-.34.15-.57-.38-.57h-.55l-.87 1.18h.49a1.59 1.59 0 0 0 1.31-.61zM6.51 17.36H0v.5h6.14zM0 19.72h4.78l.36-.5H0zm0-1.43v.5h5.46l.37-.5zm43.25-.93-.37.5H48v-.5zm-1.73 2.36H48v-.5h-6.12zm.68-.93H48v-.5h-5.43zM32 17.36l-.5.68c-.57.77-.07 1.68 1.81 1.68h7.34l1.74-2.36zm-3.2 2.36 1.74-2.36H26l-1.74 2.36zm-10.94-2.36h-5.31c-.68 0-.47-.28-.36-.43l.81-1.1c.21-.29.22-.46-.22-.46h-4l-3.2 4.35h7.8a5.5 5.5 0 0 0 4.48-2.36zm-.24 2.36h4.57l1.74-2.36h-4.58zm16.37-7h-4.57l-1.76 2.38h-2l1.76-2.38H22.8l-3.05 4.16h11.18zm3.27 4.16 3.06-4.16h-4.84l-3.06 4.16zm-22.11-1.59-.8 1.11c-.11.15-.32.43.36.43h3.54l1.06-1.43c.65-.89.05-2.73-2.28-2.73H7.85l-1.59 2.17h8.67c.44 0 .44.16.22.45z"/></svg>