<svg xmlns="http://www.w3.org/2000/svg" viewBox="0 0 48 32" aria-hidden="true"><g fill="none"><rect width="45.333" height="29.333" x="1.333" y="1.333" fill="#FFF" rx="2"/><path fill="#DDD" d="M44 1.333A2.67 2.67 0 0 1 46.667 4v24A2.67 2.67 0 0 1 44 30.667H4A2.67 2.67 0 0 1 1.333 28V4A2.67 2.67 0 0 1 4 1.333h40zM44 0H4a4.012 4.012 0 0 0-4 4v24a4.012 4.012 0 0 0 4 4h40a4.012 4.012 0 0 0 4-4V4a4.012 4.012 0 0 0-4-4z"/><path fill="#000" d="M17.531 28.384v-1.622a.962.962 0 0 0-1.016-1.026.998.998 0 0 0-.908.46.95.95 0 0 0-.853-.46.852.852 0 0 0-.756.384V25.8h-.563v2.584h.568v-1.432a.604.604 0 0 1 .632-.687c.374 0 .563.243.563.682v1.437h.568v-1.432a.61.61 0 0 1 .632-.685c.384 0 .568.242.568.681v1.437h.565v-.002zm3.167-1.292V25.8h-.563v.313a.981.981 0 0 0-.816-.379 1.357 1.357 0 0 0 0 2.712.981.981 0 0 0 .816-.378v.313h.563v-1.29zm-2.09 0a.783.783 0 1 1 .782.826.775.775 0 0 1-.783-.826zm14.118-1.36c.19-.002.379.033.555.104a1.318 1.318 0 0 1 .733.716c.14.345.14.733 0 1.078a1.318 1.318 0 0 1-.733.716 1.531 1.531 0 0 1-1.11 0 1.31 1.31 0 0 1-.73-.716 1.438 1.438 0 0 1 .001-1.078 1.31 1.31 0 0 1 .73-.716c.175-.071.363-.106.554-.104zm0 .532a.835.835 0 0 0-.321.061.753.753 0 0 0-.426.43.941.941 0 0 0 0 .673.746.746 0 0 0 .425.43.873.873 0 0 0 .642 0 .771.771 0 0 0 .43-.43.941.941 0 0 0 0-.672.775.775 0 0 0-.43-.431.8.8 0 0 0-.32-.061zm-8.97.828a1.239 1.239 0 0 0-1.226-1.356 1.357 1.357 0 0 0 .039 2.713 1.57 1.57 0 0 0 1.058-.363l-.276-.416c-.213.171-.477.267-.75.271a.719.719 0 0 1-.774-.632h1.919c.005-.072.01-.141.01-.217zm-1.923-.227a.664.664 0 0 1 .686-.627.641.641 0 0 1 .654.627h-1.34zm4.292-.405a1.66 1.66 0 0 0-.806-.222c-.308 0-.492.114-.492.303 0 .173.195.221.438.253l.265.038c.563.081.903.318.903.773 0 .492-.432.843-1.179.843-.399.01-.79-.107-1.119-.335l.266-.437c.248.184.55.278.86.27.384 0 .589-.113.589-.313 0-.145-.145-.227-.453-.27l-.266-.038c-.578-.081-.892-.34-.892-.763 0-.513.422-.826 1.076-.826.37-.014.736.081 1.054.27l-.244.454zm2.7-.147h-.919v1.168c0 .26.092.432.373.432.176-.005.347-.056.498-.145l.162.481a1.31 1.31 0 0 1-.702.2c-.666 0-.898-.357-.898-.956v-1.179h-.524v-.513h.524v-.784h.568v.784h.919l-.001.512zm1.945-.579c.136 0 .272.024.4.071l-.173.53a.93.93 0 0 0-.351-.066c-.368 0-.55.237-.55.665v1.448h-.563V25.8h.557v.313a.761.761 0 0 1 .68-.379zm3.89 2.272a.264.264 0 0 1 .185.075.249.249 0 0 1 0 .363.267.267 0 0 1-.083.056.241.241 0 0 1-.101.02.261.261 0 0 1-.243-.158.26.26 0 0 1 0-.2.246.246 0 0 1 .056-.081.27.27 0 0 1 .187-.075zm0 .458a.191.191 0 0 0 .078-.016.199.199 0 0 0-.001-.368.198.198 0 0 0-.22.043.2.2 0 0 0 0 .283.21.21 0 0 0 .144.058zm.017-.32a.11.11 0 0 1 .07.02.074.074 0 0 1 .026.056.068.068 0 0 1-.02.049.1.1 0 0 1-.056.024l.078.09h-.061l-.072-.089h-.023v.09h-.05v-.239h.108v-.001z"/><path fill="#7578B9" d="M19.501 6.084h8.524v15.319h-8.524z"/><path fill="#E51B24" d="M20.042 13.742a9.723 9.723 0 0 1 3.721-7.658c-4.23-3.326-10.354-2.592-13.68 1.638a9.743 9.743 0 0 0 13.68 13.68 9.727 9.727 0 0 1-3.721-7.66z"/><path fill="#231F20" d="M38.595 19.78v-.315h.127v-.064h-.323v.064h.127v.313h.07v.002zm.626 0V19.4h-.099l-.113.26-.114-.26h-.098v.379h.069v-.286l.107.246h.072l.106-.247v.285l.07.002z"/><path fill="#00ACE8" d="M39.526 13.742c0 5.38-4.361 9.742-9.741 9.743a9.738 9.738 0 0 1-6.02-2.083c4.23-3.326 4.962-9.452 1.636-13.681a9.74 9.74 0 0 0-1.636-1.636c4.228-3.327 10.353-2.593 13.677 1.637a9.732 9.732 0 0 1 2.084 6.02z"/></g></svg>