<svg xmlns="http://www.w3.org/2000/svg" viewBox="0 0 48 32" aria-hidden="true"><g fill="none"><rect width="45.333" height="29.333" x="1.333" y="1.333" fill="#FFF" rx="2"/><path fill="#DDD" d="M44 1.333A2.667 2.667 0 0 1 46.667 4v24A2.667 2.667 0 0 1 44 30.667H4A2.667 2.667 0 0 1 1.333 28V4A2.667 2.667 0 0 1 4 1.333h40zM44 0H4a4.012 4.012 0 0 0-4 4v24a4.012 4.012 0 0 0 4 4h40a4.012 4.012 0 0 0 4-4V4a4.012 4.012 0 0 0-4-4z"/><path fill="#231F20" d="M13.568 27.975V26.38a.946.946 0 0 0-1-1.01.983.983 0 0 0-.893.453.933.933 0 0 0-.84-.452.84.84 0 0 0-.744.377v-.313H9.54v2.54h.559v-1.398a.597.597 0 0 1 .621-.674c.367 0 .553.238.553.669v1.413h.559v-1.408a.598.598 0 0 1 .621-.674c.378 0 .559.238.559.669v1.413l.556-.01zm8.257-2.542h-.909v-.77h-.559v.77h-.504v.506h.516v1.169c0 .59.228.941.883.941.244.002.484-.068.69-.197l-.16-.473a1.034 1.034 0 0 1-.489.144c-.265 0-.366-.171-.366-.426V25.94h.904l-.006-.506zm4.715-.064a.748.748 0 0 0-.67.372v-.308h-.547v2.54h.553V26.55c0-.42.181-.653.532-.653a.897.897 0 0 1 .345.064l.171-.532a1.197 1.197 0 0 0-.393-.07l.009.011zm-7.128.266a1.886 1.886 0 0 0-1.036-.266c-.643 0-1.063.308-1.063.814 0 .414.308.669.878.749l.265.037c.303.043.447.123.447.266 0 .196-.202.308-.579.308a1.355 1.355 0 0 1-.845-.266l-.266.431c.323.225.708.34 1.1.33.734 0 1.159-.346 1.159-.83s-.335-.68-.888-.76l-.265-.037c-.239-.032-.431-.08-.431-.25 0-.169.181-.297.484-.297.28.003.555.079.797.217l.243-.446zm14.805-.266a.748.748 0 0 0-.669.372v-.308H33v2.542h.553V26.55c0-.42.182-.654.532-.654a.897.897 0 0 1 .346.064l.17-.532a1.197 1.197 0 0 0-.393-.069l.01.01zm-7.121 1.328a1.282 1.282 0 0 0 1.236 1.33c.04.001.08.001.12-.002.332.018.659-.09.915-.302l-.266-.447c-.19.145-.424.225-.664.228a.817.817 0 0 1 0-1.627c.24.003.474.083.664.228l.266-.446a1.326 1.326 0 0 0-.915-.303 1.284 1.284 0 0 0-1.356 1.33v.011zm5.176 0v-1.265h-.552v.308a.962.962 0 0 0-.797-.372 1.33 1.33 0 0 0-.015 2.657h.015a.962.962 0 0 0 .797-.372v.308h.553l-.001-1.264zm-2.056 0a.763.763 0 1 1-.001.062c-.002-.022 0-.042.001-.062zm-6.67-1.328a1.33 1.33 0 0 0 .031 2.659h.006c.382.02.758-.104 1.054-.345l-.265-.41c-.21.168-.47.262-.739.266a.703.703 0 0 1-.76-.622h1.887v-.212a1.208 1.208 0 0 0-1.207-1.329l-.008-.007zm0 .495a.628.628 0 0 1 .642.616h-1.33c.02-.355.32-.63.675-.616h.012zm13.847.839v-2.291h-.532v1.33a.962.962 0 0 0-.797-.373 1.33 1.33 0 0 0 0 2.659.962.962 0 0 0 .797-.372v.308h.532v-1.261zm.923.901a.25.25 0 0 1 .239.348.256.256 0 0 1-.139.133.243.243 0 0 1-.101.022.266.266 0 0 1-.239-.155.25.25 0 0 1 0-.196.26.26 0 0 1 .247-.152h-.007zm0 .45a.191.191 0 1 0-.077-.367.186.186 0 0 0-.064.042.192.192 0 0 0 .149.324h-.008zm.016-.318a.107.107 0 0 1 .07.021.068.068 0 0 1 .023.056.066.066 0 0 1-.018.048.097.097 0 0 1-.056.024l.077.088h-.061l-.072-.088h-.024v.088h-.051v-.233l.112-.004zm-2.983-1.033a.763.763 0 1 1-.001.061l.001-.061zm-18.664.001v-1.27h-.552v.307a.962.962 0 0 0-.797-.372 1.33 1.33 0 0 0 0 2.659.962.962 0 0 0 .797-.372v.308h.554l-.002-1.26zm-2.056 0a.71.71 0 1 1-.006.065l.001-.065h.005z"/><path fill="#F26122" d="M19.228 6.072H27.6v15.044h-8.372z"/><path fill="#EA1D25" d="M19.76 13.596a9.555 9.555 0 0 1 3.653-7.524C19.26 2.808 13.244 3.529 9.98 7.684a9.568 9.568 0 0 0 13.435 13.433 9.549 9.549 0 0 1-3.655-7.521z"/><path fill="#F69E1E" d="M38.895 13.596c0 5.284-4.283 9.568-9.567 9.568a9.571 9.571 0 0 1-5.913-2.045c4.154-3.266 4.874-9.28 1.609-13.435a9.588 9.588 0 0 0-1.61-1.61 9.567 9.567 0 0 1 15.48 7.52v.002z"/></g></svg>