<svg xmlns="http://www.w3.org/2000/svg" viewBox="0 0 48 32" aria-hidden="true"><g fill="none"><path fill="#FFF" d="M4 1.333h40c1.467 0 2.667 1.2 2.667 2.667v24c0 1.467-1.2 2.667-2.667 2.667H4A2.675 2.675 0 0 1 1.333 28V4c0-1.467 1.2-2.667 2.667-2.667z"/><path fill="#DDD" d="M44 1.333c1.467 0 2.667 1.2 2.667 2.667v24c0 1.467-1.2 2.667-2.667 2.667H4A2.675 2.675 0 0 1 1.333 28V4c0-1.467 1.2-2.667 2.667-2.667h40zM44 0H4C1.733 0 0 1.733 0 4v24c0 2.267 1.733 4 4 4h40c2.267 0 4-1.733 4-4V4c0-2.267-1.733-4-4-4z"/><path fill="#253B80" d="M18.533 13.467H16.4a.287.287 0 0 0-.267.266l-.8 5.334c0 .133 0 .266.134.266h.933a.287.287 0 0 0 .267-.266l.266-1.467c0-.133.134-.267.267-.267h.667c1.333 0 2.133-.666 2.4-2 .133-.533 0-1.066-.267-1.333-.133-.4-.667-.533-1.467-.533zm.267 2c-.133.8-.667.8-1.2.8h-.267l.267-1.334c0-.133.133-.133.133-.133h.134c.4 0 .666 0 .933.267 0-.134.133.133 0 .4zm6-.134h-.933c-.134 0-.134 0-.134.134v.266L23.6 15.6c-.267-.267-.667-.4-1.2-.4-1.067 0-2 .8-2.267 2-.133.533 0 1.2.4 1.467.267.4.8.533 1.2.533.934 0 1.334-.533 1.334-.533v.266c0 .134 0 .267.133.267h.933a.287.287 0 0 0 .267-.267l.533-3.466s0-.134-.133-.134zm-1.333 2c-.134.534-.534.934-1.067.934-.267 0-.533-.134-.667-.267-.133-.133-.266-.4-.133-.667.133-.533.533-.933 1.067-.933.266 0 .533.133.666.267.134.133.134.4.134.666zm6.666-2h-1.066c-.134 0-.134 0-.267.134l-1.333 2-.534-2a.287.287 0 0 0-.266-.267h-.934c-.133 0-.266.133-.133.267l1.067 3.2-1.067 1.466c-.133.134 0 .267.133.267h.934c.133 0 .133 0 .266-.133l3.334-4.8c.133.133 0-.134-.134-.134z"/><path fill="#179BD7" d="M33.467 13.467h-2.134a.287.287 0 0 0-.266.266l-.8 5.334c0 .133 0 .266.133.266h1.067c.133 0 .133-.133.133-.133l.267-1.467c0-.133.133-.266.266-.266h.667c1.333 0 2.133-.667 2.4-2 .133-.534 0-1.067-.267-1.334-.266-.533-.8-.666-1.466-.666zm.133 2c-.133.8-.667.8-1.2.8h-.267l.267-1.334c0-.133.133-.133.133-.133h.134c.4 0 .666 0 .933.267.133-.134.133.133 0 .4zm6-.134h-.933c-.134 0-.134 0-.134.134v.266L38.4 15.6c-.267-.267-.667-.4-1.2-.4-1.067 0-2 .8-2.267 2-.133.533 0 1.2.4 1.467.267.4.8.533 1.2.533.934 0 1.334-.533 1.334-.533v.266c0 .134 0 .267.133.267h.933a.287.287 0 0 0 .267-.267l.533-3.466c.134 0 0-.134-.133-.134zm-1.333 2c-.134.534-.534.934-1.067.934-.267 0-.533-.134-.667-.267-.133-.133-.266-.4-.133-.667.133-.533.533-.933 1.067-.933.266 0 .533.133.666.267.134.133.134.4.134.666zM40.8 13.6l-.8 5.467c0 .133 0 .266.133.266h.8a.287.287 0 0 0 .267-.266l.8-5.334c0-.133 0-.266-.133-.266h-.934s-.133 0-.133.133z"/><path fill="#253B80" d="m6.8 20.267.133-1.067H4.8L6 11.733h2.8c.933 0 1.6.134 2 .534.133.133.267.4.267.533V13.867L11.2 14c.133.133.267.133.267.267.4.133.533.4.533.533v.8c-.133.4-.133.667-.4.933-.133.267-.267.4-.533.667-.267.133-.4.267-.8.4-.267.133-.534.133-.934.133H9.2c-.133 0-.267 0-.4.134-.133.133-.267.266-.267.4v.133l-.266 1.733c-.134.134-1.467.134-1.467.134z"/><path fill="#179BD7" d="M11.6 13.733v.134C11.2 15.733 10 16.4 8.267 16.4h-.934c-.266 0-.4.133-.4.4l-.4 2.667-.133.8c0 .133.133.266.267.266h1.466c.134 0 .267-.133.4-.266v-.134L8.8 18.4v-.133c0-.134.133-.267.4-.267h.133c1.467 0 2.534-.533 2.934-2.267.133-.666 0-1.333-.267-1.733-.133-.133-.267-.133-.4-.267z"/><path fill="#222D65" d="M11.2 13.6H7.733c-.133 0-.133.133-.133.267l-.533 3.066v.134c0-.134.266-.4.4-.4h.8c1.6 0 2.933-.667 3.333-2.534V14c-.133-.267-.267-.4-.4-.4z"/><path fill="#253B80" d="M7.467 13.733c0-.133.133-.266.133-.266h3.6c.133 0 .267.133.267.133.133-.667 0-1.2-.4-1.6-.267-.4-1.067-.533-2.134-.533h-2.8c-.266 0-.4.133-.4.4l-1.2 7.466c0 .134.134.267.267.267h1.733l.4-2.8.534-3.067z"/></g></svg>