<svg xmlns="http://www.w3.org/2000/svg" viewBox="0 0 48 32" aria-hidden="true"><rect width="46.6" height="30.6" x="0.7" y="0.7" fill="#fff" rx="3.3"/><path fill="#ddd" d="M44 1.4A2.61 2.61 0 0 1 46.6 4v24a2.61 2.61 0 0 1-2.6 2.6H4A2.61 2.61 0 0 1 1.4 28V4A2.61 2.61 0 0 1 4 1.4zM44 0H4a4 4 0 0 0-4 4v24a4 4 0 0 0 4 4h40a4 4 0 0 0 4-4V4a4 4 0 0 0-4-4z"/><path fill="#2a6b9b" d="m7.43 21.16-.16.48H6.13l-.13.52h1l-.15.46H5.8l-.21.64h1.18l-.16.48H4.73l.87-2.58zm1.14 0 .11.47a2 2 0 0 1 .06.34l.73-.81h.82l-1.17 1.21.4 1.37h-.74l-.16-.62-.06-.32-.81.94h-.84l1.3-1.39-.38-1.19zm3 0c.72 0 1 .21 1 .7a1.11 1.11 0 0 1-1.24.95h-.37l-.32.94H9.9l.87-2.58zm-.47 1.16h.19c.34 0 .54-.15.57-.39s-.1-.31-.37-.31h-.19zm3.2-1.16c.62 0 .91.21.85.64a.76.76 0 0 1-.79.65.49.49 0 0 1 .21.41l.08.88h-.68l-.08-.83c0-.15-.1-.2-.29-.2h-.12l-.35 1h-.68l.86-2.58zm-.67 1.07h.25c.34 0 .52-.13.55-.33s-.09-.27-.33-.27h-.3zm4.16-1.07-.17.48h-1.17l-.17.52h1.07l-.15.46h-1.08l-.21.64h1.18l-.16.48h-1.87l.86-2.58zm2 .56a1.44 1.44 0 0 0-.57-.13c-.32 0-.5.1-.52.27s.16.2.42.33.52.34.47.68c-.06.55-.55.93-1.32.93a2.33 2.33 0 0 1-.85-.14l.21-.53a1.31 1.31 0 0 0 .6.16c.37 0 .59-.13.61-.33s-.18-.26-.52-.41a.54.54 0 0 1-.36-.61 1.08 1.08 0 0 1 1.19-.84 2.35 2.35 0 0 1 .86.12zm2.29 0a1.4 1.4 0 0 0-.57-.13c-.32 0-.49.1-.51.27s.15.2.41.33.52.34.48.68c-.07.55-.55.93-1.33.93a2.37 2.37 0 0 1-.85-.14l.21-.53a1.35 1.35 0 0 0 .6.16c.37 0 .59-.13.61-.33s-.18-.26-.51-.41a.54.54 0 0 1-.37-.61 1.09 1.09 0 0 1 1.2-.84 2.32 2.32 0 0 1 .85.12zm3.83.06a1 1 0 0 0-.6-.17 1 1 0 0 0-1.11 1c-.05.4.2.66.66.66a1.55 1.55 0 0 0 .64-.16l-.14.6a3.08 3.08 0 0 1-.72.09c-.83 0-1.25-.46-1.16-1.21a1.74 1.74 0 0 1 .53-1 1.77 1.77 0 0 1 1.27-.45 2.75 2.75 0 0 1 .87.15zm2.83.43a1.89 1.89 0 0 1-.44 1 1.61 1.61 0 0 1-1.25.58.92.92 0 0 1-1-1.12 1.9 1.9 0 0 1 .41-1 1.61 1.61 0 0 1 1.29-.61.9.9 0 0 1 1 1.15zm-1.11-.63a.77.77 0 0 0-.6.36 1.83 1.83 0 0 0-.3.77c0 .37.12.59.41.59a.76.76 0 0 0 .59-.37 1.58 1.58 0 0 0 .3-.76c.05-.38-.1-.59-.4-.59zm2.71-.42-.49 1.44a2.37 2.37 0 0 0-.09.36.31.31 0 0 0 .33.35c.31 0 .47-.25.64-.74l.48-1.41h.67l-.53 1.61a1.29 1.29 0 0 1-1.36 1c-.67 0-1-.31-.92-.87a1.47 1.47 0 0 1 .08-.35l.49-1.43zm3.13 0c.62 0 .91.21.86.64a.77.77 0 0 1-.8.65.49.49 0 0 1 .21.41l.09.88h-.69l-.08-.83c0-.15-.09-.2-.29-.2h-.12l-.34 1h-.69l.87-2.58zm-.66 1.07h.25c.33 0 .52-.13.54-.33s-.09-.27-.33-.27H33zm2.92-1.07-.87 2.58h-.69l.83-2.58zm2.52 0-.17.48H37l-.17.52h1.07l-.15.46h-1.13l-.21.64h1.18l-.16.48h-1.88l.87-2.58zm1.56 0c.62 0 .91.21.86.64a.76.76 0 0 1-.8.65.45.45 0 0 1 .21.41l.09.88h-.67l-.09-.83c0-.15-.09-.2-.28-.2H39l-.34 1H38l.86-2.58zm-.66 1.07h.25c.33 0 .52-.13.55-.33s-.09-.27-.33-.27h-.27zm-23-8.06c-.83-.82-2.07-2-2.07-2s-.13-.2.05-.2h5.66l1.06-3.8h-8.41c-2.39 0-3.8 1.06-3.8 2.66a3 3 0 0 0 .84 2.22c1.11 1.11 3.32 3.17 3.64 3.49.1.1.12.2 0 .2H6.83l-1 3.6h9.54a3 3 0 0 0 2.92-2.63c-.01-1.48-.45-1.87-2.11-3.54zm9.6-6H21.3l-3.4 12.19H26c3.67 0 5.85-4.16 5.85-6.9 0-3.78-3.08-5.27-6.06-5.27zm-.69 8.57h-2.19L24.2 12h1.55a1.91 1.91 0 0 1 2.13 1.72 3 3 0 0 1-2.79 3.05zm14.1 2.16.08-.23h-.71a.14.14 0 0 0-.11.08.24.24 0 0 0 0 .08.14.14 0 0 0 0 .07zm-.62.15.09.11.23.29a.52.52 0 0 1 .09.2h.46a.36.36 0 0 0 .33-.32.33.33 0 0 0-.35-.32h-.89zm.92-10.86h-1.69c-4.12 0-4.73 3-5.23 4.81l-2.06 7.36h3.89l1-3.6h2.75l-1 3.6H41l2-7.25c1.2-4.11-2.42-4.92-3.54-4.92zM36.14 14s.34-1.2.46-1.64a1 1 0 0 1 1-.79h.86c.5 0 1 .47.88.93L38.9 14z"/></svg>