<svg id="visual" viewBox="0 0 960 540" width="960" height="540" xmlns="http://www.w3.org/2000/svg" xmlns:xlink="http://www.w3.org/1999/xlink" version="1.1"><rect x="0" y="0" width="960" height="540" fill="#000"></rect><path d="M0 330L22.8 331.5C45.7 333 91.3 336 137 339C182.7 342 228.3 345 274 340.5C319.7 336 365.3 324 411.2 334.7C457 345.3 503 378.7 548.8 390.8C594.7 403 640.3 394 686 390.5C731.7 387 777.3 389 823 377.7C868.7 366.3 914.3 341.7 937.2 329.3L960 317L960 541L937.2 541C914.3 541 868.7 541 823 541C777.3 541 731.7 541 686 541C640.3 541 594.7 541 548.8 541C503 541 457 541 411.2 541C365.3 541 319.7 541 274 541C228.3 541 182.7 541 137 541C91.3 541 45.7 541 22.8 541L0 541Z" fill="#000000"></path><path d="M0 376L22.8 380.5C45.7 385 91.3 394 137 393.7C182.7 393.3 228.3 383.7 274 389.3C319.7 395 365.3 416 411.2 412.7C457 409.3 503 381.7 548.8 378.3C594.7 375 640.3 396 686 397.7C731.7 399.3 777.3 381.7 823 382.5C868.7 383.3 914.3 402.7 937.2 412.3L960 422L960 541L937.2 541C914.3 541 868.7 541 823 541C777.3 541 731.7 541 686 541C640.3 541 594.7 541 548.8 541C503 541 457 541 411.2 541C365.3 541 319.7 541 274 541C228.3 541 182.7 541 137 541C91.3 541 45.7 541 22.8 541L0 541Z" fill="#161616"></path><path d="M0 399L22.8 397.3C45.7 395.7 91.3 392.3 137 400C182.7 407.7 228.3 426.3 274 426.7C319.7 427 365.3 409 411.2 409.3C457 409.7 503 428.3 548.8 434.5C594.7 440.7 640.3 434.3 686 431.3C731.7 428.3 777.3 428.7 823 428C868.7 427.3 914.3 425.7 937.2 424.8L960 424L960 541L937.2 541C914.3 541 868.7 541 823 541C777.3 541 731.7 541 686 541C640.3 541 594.7 541 548.8 541C503 541 457 541 411.2 541C365.3 541 319.7 541 274 541C228.3 541 182.7 541 137 541C91.3 541 45.7 541 22.8 541L0 541Z" fill="#242424"></path><path d="M0 477L22.8 472.3C45.7 467.7 91.3 458.3 137 456.5C182.7 454.7 228.3 460.3 274 462.7C319.7 465 365.3 464 411.2 464.3C457 464.7 503 466.3 548.8 460.7C594.7 455 640.3 442 686 445.3C731.7 448.7 777.3 468.3 823 470.5C868.7 472.7 914.3 457.3 937.2 449.7L960 442L960 541L937.2 541C914.3 541 868.7 541 823 541C777.3 541 731.7 541 686 541C640.3 541 594.7 541 548.8 541C503 541 457 541 411.2 541C365.3 541 319.7 541 274 541C228.3 541 182.7 541 137 541C91.3 541 45.7 541 22.8 541L0 541Z" fill="#343434"></path><path d="M0 516L22.8 508.3C45.7 500.7 91.3 485.3 137 482.2C182.7 479 228.3 488 274 489.8C319.7 491.7 365.3 486.3 411.2 488.2C457 490 503 499 548.8 504.7C594.7 510.3 640.3 512.7 686 505.8C731.7 499 777.3 483 823 479.3C868.7 475.7 914.3 484.3 937.2 488.7L960 493L960 541L937.2 541C914.3 541 868.7 541 823 541C777.3 541 731.7 541 686 541C640.3 541 594.7 541 548.8 541C503 541 457 541 411.2 541C365.3 541 319.7 541 274 541C228.3 541 182.7 541 137 541C91.3 541 45.7 541 22.8 541L0 541Z" fill="#444444"></path></svg>