<svg id="visual" viewBox="0 0 960 540" width="960" height="540" xmlns="http://www.w3.org/2000/svg" xmlns:xlink="http://www.w3.org/1999/xlink" version="1.1"><path d="M0 104L14.5 101.2C29 98.3 58 92.7 87.2 83.7C116.3 74.7 145.7 62.3 174.8 70.5C204 78.7 233 107.3 262 114.5C291 121.7 320 107.3 349 101C378 94.7 407 96.3 436.2 106.2C465.3 116 494.7 134 523.8 128.7C553 123.3 582 94.7 611 92.8C640 91 669 116 698 122.3C727 128.7 756 116.3 785.2 111.8C814.3 107.3 843.7 110.7 872.8 108.8C902 107 931 100 945.5 96.5L960 93L960 0L945.5 0C931 0 902 0 872.8 0C843.7 0 814.3 0 785.2 0C756 0 727 0 698 0C669 0 640 0 611 0C582 0 553 0 523.8 0C494.7 0 465.3 0 436.2 0C407 0 378 0 349 0C320 0 291 0 262 0C233 0 204 0 174.8 0C145.7 0 116.3 0 87.2 0C58 0 29 0 14.5 0L0 0Z" fill="#686868"></path><path d="M0 309L14.5 309.8C29 310.7 58 312.3 87.2 289.8C116.3 267.3 145.7 220.7 174.8 219.8C204 219 233 264 262 275.7C291 287.3 320 265.7 349 254C378 242.3 407 240.7 436.2 242.5C465.3 244.3 494.7 249.7 523.8 256.8C553 264 582 273 611 289.2C640 305.3 669 328.7 698 316C727 303.3 756 254.7 785.2 248.3C814.3 242 843.7 278 872.8 274.5C902 271 931 228 945.5 206.5L960 185L960 91L945.5 94.5C931 98 902 105 872.8 106.8C843.7 108.7 814.3 105.3 785.2 109.8C756 114.3 727 126.7 698 120.3C669 114 640 89 611 90.8C582 92.7 553 121.3 523.8 126.7C494.7 132 465.3 114 436.2 104.2C407 94.3 378 92.7 349 99C320 105.3 291 119.7 262 112.5C233 105.3 204 76.7 174.8 68.5C145.7 60.3 116.3 72.7 87.2 81.7C58 90.7 29 96.3 14.5 99.2L0 102Z" fill="#565656"></path><path d="M0 368L14.5 366.2C29 364.3 58 360.7 87.2 339.2C116.3 317.7 145.7 278.3 174.8 278.3C204 278.3 233 317.7 262 328.3C291 339 320 321 349 311.2C378 301.3 407 299.7 436.2 297C465.3 294.3 494.7 290.7 523.8 299.7C553 308.7 582 330.3 611 348.3C640 366.3 669 380.7 698 362.7C727 344.7 756 294.3 785.2 292.5C814.3 290.7 843.7 337.3 872.8 335.5C902 333.7 931 283.3 945.5 258.2L960 233L960 183L945.5 204.5C931 226 902 269 872.8 272.5C843.7 276 814.3 240 785.2 246.3C756 252.7 727 301.3 698 314C669 326.7 640 303.3 611 287.2C582 271 553 262 523.8 254.8C494.7 247.7 465.3 242.3 436.2 240.5C407 238.7 378 240.3 349 252C320 263.7 291 285.3 262 273.7C233 262 204 217 174.8 217.8C145.7 218.7 116.3 265.3 87.2 287.8C58 310.3 29 308.7 14.5 307.8L0 307Z" fill="#444444"></path><path d="M0 406L14.5 410.5C29 415 58 424 87.2 406C116.3 388 145.7 343 174.8 343.8C204 344.7 233 391.3 262 401.2C291 411 320 384 349 376.8C378 369.7 407 382.3 436.2 382.3C465.3 382.3 494.7 369.7 523.8 371.5C553 373.3 582 389.7 611 403.2C640 416.7 669 427.3 698 406.7C727 386 756 334 785.2 335C814.3 336 843.7 390 872.8 397.2C902 404.3 931 364.7 945.5 344.8L960 325L960 231L945.5 256.2C931 281.3 902 331.7 872.8 333.5C843.7 335.3 814.3 288.7 785.2 290.5C756 292.3 727 342.7 698 360.7C669 378.7 640 364.3 611 346.3C582 328.3 553 306.7 523.8 297.7C494.7 288.7 465.3 292.3 436.2 295C407 297.7 378 299.3 349 309.2C320 319 291 337 262 326.3C233 315.7 204 276.3 174.8 276.3C145.7 276.3 116.3 315.7 87.2 337.2C58 358.7 29 362.3 14.5 364.2L0 366Z" fill="#3b3b3b"></path><path d="M0 541L14.5 541C29 541 58 541 87.2 541C116.3 541 145.7 541 174.8 541C204 541 233 541 262 541C291 541 320 541 349 541C378 541 407 541 436.2 541C465.3 541 494.7 541 523.8 541C553 541 582 541 611 541C640 541 669 541 698 541C727 541 756 541 785.2 541C814.3 541 843.7 541 872.8 541C902 541 931 541 945.5 541L960 541L960 323L945.5 342.8C931 362.7 902 402.3 872.8 395.2C843.7 388 814.3 334 785.2 333C756 332 727 384 698 404.7C669 425.3 640 414.7 611 401.2C582 387.7 553 371.3 523.8 369.5C494.7 367.7 465.3 380.3 436.2 380.3C407 380.3 378 367.7 349 374.8C320 382 291 409 262 399.2C233 389.3 204 342.7 174.8 341.8C145.7 341 116.3 386 87.2 404C58 422 29 413 14.5 408.5L0 404Z" fill="#323232"></path></svg>