<svg xmlns="http://www.w3.org/2000/svg" viewBox="0 0 48 32" aria-hidden="true"><rect width="46.6" height="30.6" x="0.7" y="0.7" fill="#fff" rx="3.301"/><path fill="#ddd" d="M43.999 1.4A2.604 2.604 0 0 1 46.6 4.001V28a2.604 2.604 0 0 1-2.601 2.601H4A2.604 2.604 0 0 1 1.4 27.999V4A2.604 2.604 0 0 1 4.001 1.4H44m0-1.4H4A4.001 4.001 0 0 0 0 4.001V28A4.001 4.001 0 0 0 4.001 32H44A4.001 4.001 0 0 0 48 27.999V4A4.001 4.001 0 0 0 43.999 0z"/><path fill="#233065" fill-rule="evenodd" d="m23.824 10.624-2.43 11.357h-2.938l2.43-11.357zm12.36 7.333 1.548-4.265.89 4.265zm3.279 4.024h2.717L39.81 10.624H37.3a1.338 1.338 0 0 0-1.25.833l-4.408 10.524h3.085l.612-1.696h3.77zm-7.668-3.708c.012-2.998-4.146-3.163-4.117-4.502.009-.407.397-.84 1.246-.951a5.544 5.544 0 0 1 2.897.508l.516-2.408a7.89 7.89 0 0 0-2.748-.504c-2.904 0-4.949 1.544-4.966 3.755-.018 1.635 1.46 2.547 2.573 3.09 1.144.557 1.529.914 1.524 1.411-.008.763-.913 1.099-1.758 1.112a6.142 6.142 0 0 1-3.018-.717l-.533 2.488a8.906 8.906 0 0 0 3.268.604c3.086 0 5.106-1.525 5.116-3.886zm-12.17-7.65-4.76 11.358H11.76l-2.342-9.064a1.244 1.244 0 0 0-.699-.998 12.279 12.279 0 0 0-2.898-.965l.07-.33h5a1.369 1.369 0 0 1 1.354 1.158l1.237 6.572 3.058-7.73z"/></svg>